<svg xmlns="http://www.w3.org/2000/svg" width="1920" height="720" viewBox="0 0 1920 720" shape-rendering="crispEdges"><title>Clockwork Toy Tower collision-aligned platform foreground layer</title><g data-platform-top="610" data-platform-x="960" data-platform-width="1920"><rect x="0" y="610" width="1920" height="8" fill="#11182b"/><rect x="3" y="612" width="1914" height="4" fill="#b18544"/><polygon points="4,618 1916,618 1920,720 0,720" fill="#34334b"/><rect x="0" y="622" width="1920" height="4" fill="#89cfe7" opacity="0.45"/><rect x="28" y="630" width="5" height="16" fill="#11182b" opacity="0.62"/><rect x="82" y="630" width="5" height="16" fill="#11182b" opacity="0.62"/><rect x="136" y="630" width="5" height="16" fill="#11182b" opacity="0.62"/><rect x="190" y="630" width="5" height="16" fill="#11182b" opacity="0.62"/><rect x="244" y="630" width="5" height="16" fill="#11182b" opacity="0.62"/><rect x="298" y="630" width="5" height="16" fill="#11182b" opacity="0.62"/><rect x="352" y="630" width="5" height="16" fill="#11182b" opacity="0.62"/><rect x="406" y="630" width="5" height="16" fill="#11182b" opacity="0.62"/><rect x="460" y="630" width="5" height="16" fill="#11182b" opacity="0.62"/><rect x="514" y="630" width="5" height="16" fill="#11182b" opacity="0.62"/><rect x="568" y="630" width="5" height="16" fill="#11182b" opacity="0.62"/><rect x="622" y="630" width="5" height="16" fill="#11182b" opacity="0.62"/><rect x="676" y="630" width="5" height="16" fill="#11182b" opacity="0.62"/><rect x="730" y="630" width="5" height="16" fill="#11182b" opacity="0.62"/><rect x="784" y="630" width="5" height="16" fill="#11182b" opacity="0.62"/><rect x="838" y="630" width="5" height="16" fill="#11182b" opacity="0.62"/><rect x="892" y="630" width="5" height="16" fill="#11182b" opacity="0.62"/><rect x="946" y="630" width="5" height="16" fill="#11182b" opacity="0.62"/><rect x="1000" y="630" width="5" height="16" fill="#11182b" opacity="0.62"/><rect x="1054" y="630" width="5" height="16" fill="#11182b" opacity="0.62"/><rect x="1108" y="630" width="5" height="16" fill="#11182b" opacity="0.62"/><rect x="1162" y="630" width="5" height="16" fill="#11182b" opacity="0.62"/><rect x="1216" y="630" width="5" height="16" fill="#11182b" opacity="0.62"/><rect x="1270" y="630" width="5" height="16" fill="#11182b" opacity="0.62"/><rect x="1324" y="630" width="5" height="16" fill="#11182b" opacity="0.62"/><rect x="1378" y="630" width="5" height="16" fill="#11182b" opacity="0.62"/><rect x="1432" y="630" width="5" height="16" fill="#11182b" opacity="0.62"/><rect x="1486" y="630" width="5" height="16" fill="#11182b" opacity="0.62"/><rect x="1540" y="630" width="5" height="16" fill="#11182b" opacity="0.62"/><rect x="1594" y="630" width="5" height="16" fill="#11182b" opacity="0.62"/><rect x="1648" y="630" width="5" height="16" fill="#11182b" opacity="0.62"/><rect x="1702" y="630" width="5" height="16" fill="#11182b" opacity="0.62"/><rect x="1756" y="630" width="5" height="16" fill="#11182b" opacity="0.62"/><rect x="1810" y="630" width="5" height="16" fill="#11182b" opacity="0.62"/><rect x="1864" y="630" width="5" height="16" fill="#11182b" opacity="0.62"/></g><g data-platform-top="448" data-platform-x="430" data-platform-width="360"><rect x="250" y="448" width="360" height="8" fill="#11182b"/><rect x="253" y="450" width="354" height="4" fill="#b18544"/><polygon points="254,456 606,456 578,518 282,518" fill="#34334b"/><rect x="282" y="460" width="296" height="4" fill="#89cfe7" opacity="0.45"/><rect x="278" y="468" width="5" height="10" fill="#11182b" opacity="0.62"/><rect x="332" y="468" width="5" height="10" fill="#11182b" opacity="0.62"/><rect x="386" y="468" width="5" height="10" fill="#11182b" opacity="0.62"/><rect x="440" y="468" width="5" height="10" fill="#11182b" opacity="0.62"/><rect x="494" y="468" width="5" height="10" fill="#11182b" opacity="0.62"/><rect x="548" y="468" width="5" height="10" fill="#11182b" opacity="0.62"/></g><g data-platform-top="298" data-platform-x="950" data-platform-width="430"><rect x="735" y="298" width="430" height="8" fill="#11182b"/><rect x="738" y="300" width="424" height="4" fill="#b18544"/><polygon points="739,306 1161,306 1126,370 774,370" fill="#34334b"/><rect x="774" y="310" width="352" height="4" fill="#89cfe7" opacity="0.45"/><rect x="763" y="318" width="5" height="10" fill="#11182b" opacity="0.62"/><rect x="817" y="318" width="5" height="10" fill="#11182b" opacity="0.62"/><rect x="871" y="318" width="5" height="10" fill="#11182b" opacity="0.62"/><rect x="925" y="318" width="5" height="10" fill="#11182b" opacity="0.62"/><rect x="979" y="318" width="5" height="10" fill="#11182b" opacity="0.62"/><rect x="1033" y="318" width="5" height="10" fill="#11182b" opacity="0.62"/><rect x="1087" y="318" width="5" height="10" fill="#11182b" opacity="0.62"/><rect x="1141" y="318" width="5" height="10" fill="#11182b" opacity="0.62"/></g><g data-platform-top="448" data-platform-x="1510" data-platform-width="430"><rect x="1295" y="448" width="430" height="8" fill="#11182b"/><rect x="1298" y="450" width="424" height="4" fill="#b18544"/><polygon points="1299,456 1721,456 1686,518 1334,518" fill="#34334b"/><rect x="1334" y="460" width="352" height="4" fill="#89cfe7" opacity="0.45"/><rect x="1323" y="468" width="5" height="10" fill="#11182b" opacity="0.62"/><rect x="1377" y="468" width="5" height="10" fill="#11182b" opacity="0.62"/><rect x="1431" y="468" width="5" height="10" fill="#11182b" opacity="0.62"/><rect x="1485" y="468" width="5" height="10" fill="#11182b" opacity="0.62"/><rect x="1539" y="468" width="5" height="10" fill="#11182b" opacity="0.62"/><rect x="1593" y="468" width="5" height="10" fill="#11182b" opacity="0.62"/><rect x="1647" y="468" width="5" height="10" fill="#11182b" opacity="0.62"/><rect x="1701" y="468" width="5" height="10" fill="#11182b" opacity="0.62"/></g><g data-portal-id="clockwork-ant-nest" data-portal-x="105" data-portal-y="610"><ellipse cx="105" cy="560" rx="37" ry="52" fill="#11182b" stroke="#34334b" stroke-width="10"/><ellipse cx="105" cy="560" rx="28" ry="42" fill="none" stroke="#89cfe7" stroke-width="4" opacity="0.82"/><circle cx="105" cy="560" r="8" fill="#b18544" opacity="0.72"/><rect x="59" y="606" width="92" height="4" fill="#11182b"/></g><g data-portal-id="clockwork-coral-temple" data-portal-x="1815" data-portal-y="610"><ellipse cx="1815" cy="560" rx="37" ry="52" fill="#11182b" stroke="#34334b" stroke-width="10"/><ellipse cx="1815" cy="560" rx="28" ry="42" fill="none" stroke="#89cfe7" stroke-width="4" opacity="0.82"/><circle cx="1815" cy="560" r="8" fill="#b18544" opacity="0.72"/><rect x="1769" y="606" width="92" height="4" fill="#11182b"/></g><g data-climbable-id="clockwork-rope" data-climbable-kind="rope" data-climbable-x="300" data-climbable-top="458" data-climbable-bottom="610" data-climbable-width="14"><rect x="297" y="458" width="6" height="152" fill="#11182b"/><rect x="298" y="458" width="4" height="152" fill="#34334b"/><rect x="299" y="458" width="1" height="152" fill="#89cfe7" opacity="0.8"/><circle cx="300" cy="470" r="4" fill="#b18544" stroke="#11182b" stroke-width="2"/><circle cx="300" cy="484" r="4" fill="#b18544" stroke="#11182b" stroke-width="2"/><circle cx="300" cy="498" r="4" fill="#b18544" stroke="#11182b" stroke-width="2"/><circle cx="300" cy="512" r="4" fill="#b18544" stroke="#11182b" stroke-width="2"/><circle cx="300" cy="526" r="4" fill="#b18544" stroke="#11182b" stroke-width="2"/><circle cx="300" cy="540" r="4" fill="#b18544" stroke="#11182b" stroke-width="2"/><circle cx="300" cy="554" r="4" fill="#b18544" stroke="#11182b" stroke-width="2"/><circle cx="300" cy="568" r="4" fill="#b18544" stroke="#11182b" stroke-width="2"/><circle cx="300" cy="582" r="4" fill="#b18544" stroke="#11182b" stroke-width="2"/><circle cx="300" cy="596" r="4" fill="#b18544" stroke="#11182b" stroke-width="2"/></g></svg>
