<svg xmlns="http://www.w3.org/2000/svg" width="1920" height="720" viewBox="0 0 1920 720" shape-rendering="crispEdges"><title>Kerning City industrial midground parallax layer</title><g opacity="0.2"><rect x="40" y="118" width="250" height="502" fill="#14292e"/><rect x="48" y="126" width="234" height="8" fill="#365057"/><rect x="62" y="152" width="12" height="16" fill="#6f9f99" opacity="0.38"/><rect x="104" y="152" width="12" height="16" fill="#6f9f99" opacity="0.38"/><rect x="146" y="152" width="12" height="16" fill="#6f9f99" opacity="0.38"/><rect x="188" y="152" width="12" height="16" fill="#6f9f99" opacity="0.38"/><rect x="230" y="152" width="12" height="16" fill="#6f9f99" opacity="0.38"/><rect x="62" y="198" width="12" height="16" fill="#6f9f99" opacity="0.38"/><rect x="104" y="198" width="12" height="16" fill="#6f9f99" opacity="0.38"/><rect x="146" y="198" width="12" height="16" fill="#6f9f99" opacity="0.38"/><rect x="188" y="198" width="12" height="16" fill="#6f9f99" opacity="0.38"/><rect x="230" y="198" width="12" height="16" fill="#6f9f99" opacity="0.38"/><rect x="62" y="244" width="12" height="16" fill="#6f9f99" opacity="0.38"/><rect x="104" y="244" width="12" height="16" fill="#6f9f99" opacity="0.38"/><rect x="146" y="244" width="12" height="16" fill="#6f9f99" opacity="0.38"/><rect x="188" y="244" width="12" height="16" fill="#6f9f99" opacity="0.38"/><rect x="230" y="244" width="12" height="16" fill="#6f9f99" opacity="0.38"/><rect x="62" y="290" width="12" height="16" fill="#6f9f99" opacity="0.38"/><rect x="104" y="290" width="12" height="16" fill="#6f9f99" opacity="0.38"/><rect x="146" y="290" width="12" height="16" fill="#6f9f99" opacity="0.38"/><rect x="188" y="290" width="12" height="16" fill="#6f9f99" opacity="0.38"/><rect x="230" y="290" width="12" height="16" fill="#6f9f99" opacity="0.38"/><rect x="62" y="336" width="12" height="16" fill="#6f9f99" opacity="0.38"/><rect x="104" y="336" width="12" height="16" fill="#6f9f99" opacity="0.38"/><rect x="146" y="336" width="12" height="16" fill="#6f9f99" opacity="0.38"/><rect x="188" y="336" width="12" height="16" fill="#6f9f99" opacity="0.38"/><rect x="230" y="336" width="12" height="16" fill="#6f9f99" opacity="0.38"/><rect x="62" y="382" width="12" height="16" fill="#6f9f99" opacity="0.38"/><rect x="104" y="382" width="12" height="16" fill="#6f9f99" opacity="0.38"/><rect x="146" y="382" width="12" height="16" fill="#6f9f99" opacity="0.38"/><rect x="188" y="382" width="12" height="16" fill="#6f9f99" opacity="0.38"/><rect x="230" y="382" width="12" height="16" fill="#6f9f99" opacity="0.38"/><rect x="62" y="428" width="12" height="16" fill="#6f9f99" opacity="0.38"/><rect x="104" y="428" width="12" height="16" fill="#6f9f99" opacity="0.38"/><rect x="146" y="428" width="12" height="16" fill="#6f9f99" opacity="0.38"/><rect x="188" y="428" width="12" height="16" fill="#6f9f99" opacity="0.38"/><rect x="230" y="428" width="12" height="16" fill="#6f9f99" opacity="0.38"/><rect x="62" y="474" width="12" height="16" fill="#6f9f99" opacity="0.38"/><rect x="104" y="474" width="12" height="16" fill="#6f9f99" opacity="0.38"/><rect x="146" y="474" width="12" height="16" fill="#6f9f99" opacity="0.38"/><rect x="188" y="474" width="12" height="16" fill="#6f9f99" opacity="0.38"/><rect x="230" y="474" width="12" height="16" fill="#6f9f99" opacity="0.38"/><rect x="62" y="520" width="12" height="16" fill="#6f9f99" opacity="0.38"/><rect x="104" y="520" width="12" height="16" fill="#6f9f99" opacity="0.38"/><rect x="146" y="520" width="12" height="16" fill="#6f9f99" opacity="0.38"/><rect x="188" y="520" width="12" height="16" fill="#6f9f99" opacity="0.38"/><rect x="230" y="520" width="12" height="16" fill="#6f9f99" opacity="0.38"/><rect x="62" y="566" width="12" height="16" fill="#6f9f99" opacity="0.38"/><rect x="104" y="566" width="12" height="16" fill="#6f9f99" opacity="0.38"/><rect x="146" y="566" width="12" height="16" fill="#6f9f99" opacity="0.38"/><rect x="188" y="566" width="12" height="16" fill="#6f9f99" opacity="0.38"/><rect x="230" y="566" width="12" height="16" fill="#6f9f99" opacity="0.38"/><rect x="330" y="188" width="220" height="432" fill="#14292e"/><rect x="338" y="196" width="204" height="8" fill="#365057"/><rect x="352" y="222" width="12" height="16" fill="#6f9f99" opacity="0.38"/><rect x="394" y="222" width="12" height="16" fill="#6f9f99" opacity="0.38"/><rect x="436" y="222" width="12" height="16" fill="#6f9f99" opacity="0.38"/><rect x="478" y="222" width="12" height="16" fill="#6f9f99" opacity="0.38"/><rect x="520" y="222" width="12" height="16" fill="#6f9f99" opacity="0.38"/><rect x="352" y="268" width="12" height="16" fill="#6f9f99" opacity="0.38"/><rect x="394" y="268" width="12" height="16" fill="#6f9f99" opacity="0.38"/><rect x="436" y="268" width="12" height="16" fill="#6f9f99" opacity="0.38"/><rect x="478" y="268" width="12" height="16" fill="#6f9f99" opacity="0.38"/><rect x="520" y="268" width="12" height="16" fill="#6f9f99" opacity="0.38"/><rect x="352" y="314" width="12" height="16" fill="#6f9f99" opacity="0.38"/><rect x="394" y="314" width="12" height="16" fill="#6f9f99" opacity="0.38"/><rect x="436" y="314" width="12" height="16" fill="#6f9f99" opacity="0.38"/><rect x="478" y="314" width="12" height="16" fill="#6f9f99" opacity="0.38"/><rect x="520" y="314" width="12" height="16" fill="#6f9f99" opacity="0.38"/><rect x="352" y="360" width="12" height="16" fill="#6f9f99" opacity="0.38"/><rect x="394" y="360" width="12" height="16" fill="#6f9f99" opacity="0.38"/><rect x="436" y="360" width="12" height="16" fill="#6f9f99" opacity="0.38"/><rect x="478" y="360" width="12" height="16" fill="#6f9f99" opacity="0.38"/><rect x="520" y="360" width="12" height="16" fill="#6f9f99" opacity="0.38"/><rect x="352" y="406" width="12" height="16" fill="#6f9f99" opacity="0.38"/><rect x="394" y="406" width="12" height="16" fill="#6f9f99" opacity="0.38"/><rect x="436" y="406" width="12" height="16" fill="#6f9f99" opacity="0.38"/><rect x="478" y="406" width="12" height="16" fill="#6f9f99" opacity="0.38"/><rect x="520" y="406" width="12" height="16" fill="#6f9f99" opacity="0.38"/><rect x="352" y="452" width="12" height="16" fill="#6f9f99" opacity="0.38"/><rect x="394" y="452" width="12" height="16" fill="#6f9f99" opacity="0.38"/><rect x="436" y="452" width="12" height="16" fill="#6f9f99" opacity="0.38"/><rect x="478" y="452" width="12" height="16" fill="#6f9f99" opacity="0.38"/><rect x="520" y="452" width="12" height="16" fill="#6f9f99" opacity="0.38"/><rect x="352" y="498" width="12" height="16" fill="#6f9f99" opacity="0.38"/><rect x="394" y="498" width="12" height="16" fill="#6f9f99" opacity="0.38"/><rect x="436" y="498" width="12" height="16" fill="#6f9f99" opacity="0.38"/><rect x="478" y="498" width="12" height="16" fill="#6f9f99" opacity="0.38"/><rect x="520" y="498" width="12" height="16" fill="#6f9f99" opacity="0.38"/><rect x="352" y="544" width="12" height="16" fill="#6f9f99" opacity="0.38"/><rect x="394" y="544" width="12" height="16" fill="#6f9f99" opacity="0.38"/><rect x="436" y="544" width="12" height="16" fill="#6f9f99" opacity="0.38"/><rect x="478" y="544" width="12" height="16" fill="#6f9f99" opacity="0.38"/><rect x="520" y="544" width="12" height="16" fill="#6f9f99" opacity="0.38"/><rect x="352" y="590" width="12" height="16" fill="#6f9f99" opacity="0.38"/><rect x="394" y="590" width="12" height="16" fill="#6f9f99" opacity="0.38"/><rect x="436" y="590" width="12" height="16" fill="#6f9f99" opacity="0.38"/><rect x="478" y="590" width="12" height="16" fill="#6f9f99" opacity="0.38"/><rect x="520" y="590" width="12" height="16" fill="#6f9f99" opacity="0.38"/><rect x="590" y="86" width="330" height="534" fill="#14292e"/><rect x="598" y="94" width="314" height="8" fill="#365057"/><rect x="612" y="120" width="12" height="16" fill="#6f9f99" opacity="0.38"/><rect x="654" y="120" width="12" height="16" fill="#6f9f99" opacity="0.38"/><rect x="696" y="120" width="12" height="16" fill="#6f9f99" opacity="0.38"/><rect x="738" y="120" width="12" height="16" fill="#6f9f99" opacity="0.38"/><rect x="780" y="120" width="12" height="16" fill="#6f9f99" opacity="0.38"/><rect x="822" y="120" width="12" height="16" fill="#6f9f99" opacity="0.38"/><rect x="864" y="120" width="12" height="16" fill="#6f9f99" opacity="0.38"/><rect x="612" y="166" width="12" height="16" fill="#6f9f99" opacity="0.38"/><rect x="654" y="166" width="12" height="16" fill="#6f9f99" opacity="0.38"/><rect x="696" y="166" width="12" height="16" fill="#6f9f99" opacity="0.38"/><rect x="738" y="166" width="12" height="16" fill="#6f9f99" opacity="0.38"/><rect x="780" y="166" width="12" height="16" fill="#6f9f99" opacity="0.38"/><rect x="822" y="166" width="12" height="16" fill="#6f9f99" opacity="0.38"/><rect x="864" y="166" width="12" height="16" fill="#6f9f99" opacity="0.38"/><rect x="612" y="212" width="12" height="16" fill="#6f9f99" opacity="0.38"/><rect x="654" y="212" width="12" height="16" fill="#6f9f99" opacity="0.38"/><rect x="696" y="212" width="12" height="16" fill="#6f9f99" opacity="0.38"/><rect x="738" y="212" width="12" height="16" fill="#6f9f99" opacity="0.38"/><rect x="780" y="212" width="12" height="16" fill="#6f9f99" opacity="0.38"/><rect x="822" y="212" width="12" height="16" fill="#6f9f99" opacity="0.38"/><rect x="864" y="212" width="12" height="16" fill="#6f9f99" opacity="0.38"/><rect x="612" y="258" width="12" height="16" fill="#6f9f99" opacity="0.38"/><rect x="654" y="258" width="12" height="16" fill="#6f9f99" opacity="0.38"/><rect x="696" y="258" width="12" height="16" fill="#6f9f99" opacity="0.38"/><rect x="738" y="258" width="12" height="16" fill="#6f9f99" opacity="0.38"/><rect x="780" y="258" width="12" height="16" fill="#6f9f99" opacity="0.38"/><rect x="822" y="258" width="12" height="16" fill="#6f9f99" opacity="0.38"/><rect x="864" y="258" width="12" height="16" fill="#6f9f99" opacity="0.38"/><rect x="612" y="304" width="12" height="16" fill="#6f9f99" opacity="0.38"/><rect x="654" y="304" width="12" height="16" fill="#6f9f99" opacity="0.38"/><rect x="696" y="304" width="12" height="16" fill="#6f9f99" opacity="0.38"/><rect x="738" y="304" width="12" height="16" fill="#6f9f99" opacity="0.38"/><rect x="780" y="304" width="12" height="16" fill="#6f9f99" opacity="0.38"/><rect x="822" y="304" width="12" height="16" fill="#6f9f99" opacity="0.38"/><rect x="864" y="304" width="12" height="16" fill="#6f9f99" opacity="0.38"/><rect x="612" y="350" width="12" height="16" fill="#6f9f99" opacity="0.38"/><rect x="654" y="350" width="12" height="16" fill="#6f9f99" opacity="0.38"/><rect x="696" y="350" width="12" height="16" fill="#6f9f99" opacity="0.38"/><rect x="738" y="350" width="12" height="16" fill="#6f9f99" opacity="0.38"/><rect x="780" y="350" width="12" height="16" fill="#6f9f99" opacity="0.38"/><rect x="822" y="350" width="12" height="16" fill="#6f9f99" opacity="0.38"/><rect x="864" y="350" width="12" height="16" fill="#6f9f99" opacity="0.38"/><rect x="612" y="396" width="12" height="16" fill="#6f9f99" opacity="0.38"/><rect x="654" y="396" width="12" height="16" fill="#6f9f99" opacity="0.38"/><rect x="696" y="396" width="12" height="16" fill="#6f9f99" opacity="0.38"/><rect x="738" y="396" width="12" height="16" fill="#6f9f99" opacity="0.38"/><rect x="780" y="396" width="12" height="16" fill="#6f9f99" opacity="0.38"/><rect x="822" y="396" width="12" height="16" fill="#6f9f99" opacity="0.38"/><rect x="864" y="396" width="12" height="16" fill="#6f9f99" opacity="0.38"/><rect x="612" y="442" width="12" height="16" fill="#6f9f99" opacity="0.38"/><rect x="654" y="442" width="12" height="16" fill="#6f9f99" opacity="0.38"/><rect x="696" y="442" width="12" height="16" fill="#6f9f99" opacity="0.38"/><rect x="738" y="442" width="12" height="16" fill="#6f9f99" opacity="0.38"/><rect x="780" y="442" width="12" height="16" fill="#6f9f99" opacity="0.38"/><rect x="822" y="442" width="12" height="16" fill="#6f9f99" opacity="0.38"/><rect x="864" y="442" width="12" height="16" fill="#6f9f99" opacity="0.38"/><rect x="612" y="488" width="12" height="16" fill="#6f9f99" opacity="0.38"/><rect x="654" y="488" width="12" height="16" fill="#6f9f99" opacity="0.38"/><rect x="696" y="488" width="12" height="16" fill="#6f9f99" opacity="0.38"/><rect x="738" y="488" width="12" height="16" fill="#6f9f99" opacity="0.38"/><rect x="780" y="488" width="12" height="16" fill="#6f9f99" opacity="0.38"/><rect x="822" y="488" width="12" height="16" fill="#6f9f99" opacity="0.38"/><rect x="864" y="488" width="12" height="16" fill="#6f9f99" opacity="0.38"/><rect x="612" y="534" width="12" height="16" fill="#6f9f99" opacity="0.38"/><rect x="654" y="534" width="12" height="16" fill="#6f9f99" opacity="0.38"/><rect x="696" y="534" width="12" height="16" fill="#6f9f99" opacity="0.38"/><rect x="738" y="534" width="12" height="16" fill="#6f9f99" opacity="0.38"/><rect x="780" y="534" width="12" height="16" fill="#6f9f99" opacity="0.38"/><rect x="822" y="534" width="12" height="16" fill="#6f9f99" opacity="0.38"/><rect x="864" y="534" width="12" height="16" fill="#6f9f99" opacity="0.38"/><rect x="612" y="580" width="12" height="16" fill="#6f9f99" opacity="0.38"/><rect x="654" y="580" width="12" height="16" fill="#6f9f99" opacity="0.38"/><rect x="696" y="580" width="12" height="16" fill="#6f9f99" opacity="0.38"/><rect x="738" y="580" width="12" height="16" fill="#6f9f99" opacity="0.38"/><rect x="780" y="580" width="12" height="16" fill="#6f9f99" opacity="0.38"/><rect x="822" y="580" width="12" height="16" fill="#6f9f99" opacity="0.38"/><rect x="864" y="580" width="12" height="16" fill="#6f9f99" opacity="0.38"/><rect x="970" y="160" width="260" height="460" fill="#14292e"/><rect x="978" y="168" width="244" height="8" fill="#365057"/><rect x="992" y="194" width="12" height="16" fill="#6f9f99" opacity="0.38"/><rect x="1034" y="194" width="12" height="16" fill="#6f9f99" opacity="0.38"/><rect x="1076" y="194" width="12" height="16" fill="#6f9f99" opacity="0.38"/><rect x="1118" y="194" width="12" height="16" fill="#6f9f99" opacity="0.38"/><rect x="1160" y="194" width="12" height="16" fill="#6f9f99" opacity="0.38"/><rect x="1202" y="194" width="12" height="16" fill="#6f9f99" opacity="0.38"/><rect x="992" y="240" width="12" height="16" fill="#6f9f99" opacity="0.38"/><rect x="1034" y="240" width="12" height="16" fill="#6f9f99" opacity="0.38"/><rect x="1076" y="240" width="12" height="16" fill="#6f9f99" opacity="0.38"/><rect x="1118" y="240" width="12" height="16" fill="#6f9f99" opacity="0.38"/><rect x="1160" y="240" width="12" height="16" fill="#6f9f99" opacity="0.38"/><rect x="1202" y="240" width="12" height="16" fill="#6f9f99" opacity="0.38"/><rect x="992" y="286" width="12" height="16" fill="#6f9f99" opacity="0.38"/><rect x="1034" y="286" width="12" height="16" fill="#6f9f99" opacity="0.38"/><rect x="1076" y="286" width="12" height="16" fill="#6f9f99" opacity="0.38"/><rect x="1118" y="286" width="12" height="16" fill="#6f9f99" opacity="0.38"/><rect x="1160" y="286" width="12" height="16" fill="#6f9f99" opacity="0.38"/><rect x="1202" y="286" width="12" height="16" fill="#6f9f99" opacity="0.38"/><rect x="992" y="332" width="12" height="16" fill="#6f9f99" opacity="0.38"/><rect x="1034" y="332" width="12" height="16" fill="#6f9f99" opacity="0.38"/><rect x="1076" y="332" width="12" height="16" fill="#6f9f99" opacity="0.38"/><rect x="1118" y="332" width="12" height="16" fill="#6f9f99" opacity="0.38"/><rect x="1160" y="332" width="12" height="16" fill="#6f9f99" opacity="0.38"/><rect x="1202" y="332" width="12" height="16" fill="#6f9f99" opacity="0.38"/><rect x="992" y="378" width="12" height="16" fill="#6f9f99" opacity="0.38"/><rect x="1034" y="378" width="12" height="16" fill="#6f9f99" opacity="0.38"/><rect x="1076" y="378" width="12" height="16" fill="#6f9f99" opacity="0.38"/><rect x="1118" y="378" width="12" height="16" fill="#6f9f99" opacity="0.38"/><rect x="1160" y="378" width="12" height="16" fill="#6f9f99" opacity="0.38"/><rect x="1202" y="378" width="12" height="16" fill="#6f9f99" opacity="0.38"/><rect x="992" y="424" width="12" height="16" fill="#6f9f99" opacity="0.38"/><rect x="1034" y="424" width="12" height="16" fill="#6f9f99" opacity="0.38"/><rect x="1076" y="424" width="12" height="16" fill="#6f9f99" opacity="0.38"/><rect x="1118" y="424" width="12" height="16" fill="#6f9f99" opacity="0.38"/><rect x="1160" y="424" width="12" height="16" fill="#6f9f99" opacity="0.38"/><rect x="1202" y="424" width="12" height="16" fill="#6f9f99" opacity="0.38"/><rect x="992" y="470" width="12" height="16" fill="#6f9f99" opacity="0.38"/><rect x="1034" y="470" width="12" height="16" fill="#6f9f99" opacity="0.38"/><rect x="1076" y="470" width="12" height="16" fill="#6f9f99" opacity="0.38"/><rect x="1118" y="470" width="12" height="16" fill="#6f9f99" opacity="0.38"/><rect x="1160" y="470" width="12" height="16" fill="#6f9f99" opacity="0.38"/><rect x="1202" y="470" width="12" height="16" fill="#6f9f99" opacity="0.38"/><rect x="992" y="516" width="12" height="16" fill="#6f9f99" opacity="0.38"/><rect x="1034" y="516" width="12" height="16" fill="#6f9f99" opacity="0.38"/><rect x="1076" y="516" width="12" height="16" fill="#6f9f99" opacity="0.38"/><rect x="1118" y="516" width="12" height="16" fill="#6f9f99" opacity="0.38"/><rect x="1160" y="516" width="12" height="16" fill="#6f9f99" opacity="0.38"/><rect x="1202" y="516" width="12" height="16" fill="#6f9f99" opacity="0.38"/><rect x="992" y="562" width="12" height="16" fill="#6f9f99" opacity="0.38"/><rect x="1034" y="562" width="12" height="16" fill="#6f9f99" opacity="0.38"/><rect x="1076" y="562" width="12" height="16" fill="#6f9f99" opacity="0.38"/><rect x="1118" y="562" width="12" height="16" fill="#6f9f99" opacity="0.38"/><rect x="1160" y="562" width="12" height="16" fill="#6f9f99" opacity="0.38"/><rect x="1202" y="562" width="12" height="16" fill="#6f9f99" opacity="0.38"/><rect x="1280" y="104" width="290" height="516" fill="#14292e"/><rect x="1288" y="112" width="274" height="8" fill="#365057"/><rect x="1302" y="138" width="12" height="16" fill="#6f9f99" opacity="0.38"/><rect x="1344" y="138" width="12" height="16" fill="#6f9f99" opacity="0.38"/><rect x="1386" y="138" width="12" height="16" fill="#6f9f99" opacity="0.38"/><rect x="1428" y="138" width="12" height="16" fill="#6f9f99" opacity="0.38"/><rect x="1470" y="138" width="12" height="16" fill="#6f9f99" opacity="0.38"/><rect x="1512" y="138" width="12" height="16" fill="#6f9f99" opacity="0.38"/><rect x="1302" y="184" width="12" height="16" fill="#6f9f99" opacity="0.38"/><rect x="1344" y="184" width="12" height="16" fill="#6f9f99" opacity="0.38"/><rect x="1386" y="184" width="12" height="16" fill="#6f9f99" opacity="0.38"/><rect x="1428" y="184" width="12" height="16" fill="#6f9f99" opacity="0.38"/><rect x="1470" y="184" width="12" height="16" fill="#6f9f99" opacity="0.38"/><rect x="1512" y="184" width="12" height="16" fill="#6f9f99" opacity="0.38"/><rect x="1302" y="230" width="12" height="16" fill="#6f9f99" opacity="0.38"/><rect x="1344" y="230" width="12" height="16" fill="#6f9f99" opacity="0.38"/><rect x="1386" y="230" width="12" height="16" fill="#6f9f99" opacity="0.38"/><rect x="1428" y="230" width="12" height="16" fill="#6f9f99" opacity="0.38"/><rect x="1470" y="230" width="12" height="16" fill="#6f9f99" opacity="0.38"/><rect x="1512" y="230" width="12" height="16" fill="#6f9f99" opacity="0.38"/><rect x="1302" y="276" width="12" height="16" fill="#6f9f99" opacity="0.38"/><rect x="1344" y="276" width="12" height="16" fill="#6f9f99" opacity="0.38"/><rect x="1386" y="276" width="12" height="16" fill="#6f9f99" opacity="0.38"/><rect x="1428" y="276" width="12" height="16" fill="#6f9f99" opacity="0.38"/><rect x="1470" y="276" width="12" height="16" fill="#6f9f99" opacity="0.38"/><rect x="1512" y="276" width="12" height="16" fill="#6f9f99" opacity="0.38"/><rect x="1302" y="322" width="12" height="16" fill="#6f9f99" opacity="0.38"/><rect x="1344" y="322" width="12" height="16" fill="#6f9f99" opacity="0.38"/><rect x="1386" y="322" width="12" height="16" fill="#6f9f99" opacity="0.38"/><rect x="1428" y="322" width="12" height="16" fill="#6f9f99" opacity="0.38"/><rect x="1470" y="322" width="12" height="16" fill="#6f9f99" opacity="0.38"/><rect x="1512" y="322" width="12" height="16" fill="#6f9f99" opacity="0.38"/><rect x="1302" y="368" width="12" height="16" fill="#6f9f99" opacity="0.38"/><rect x="1344" y="368" width="12" height="16" fill="#6f9f99" opacity="0.38"/><rect x="1386" y="368" width="12" height="16" fill="#6f9f99" opacity="0.38"/><rect x="1428" y="368" width="12" height="16" fill="#6f9f99" opacity="0.38"/><rect x="1470" y="368" width="12" height="16" fill="#6f9f99" opacity="0.38"/><rect x="1512" y="368" width="12" height="16" fill="#6f9f99" opacity="0.38"/><rect x="1302" y="414" width="12" height="16" fill="#6f9f99" opacity="0.38"/><rect x="1344" y="414" width="12" height="16" fill="#6f9f99" opacity="0.38"/><rect x="1386" y="414" width="12" height="16" fill="#6f9f99" opacity="0.38"/><rect x="1428" y="414" width="12" height="16" fill="#6f9f99" opacity="0.38"/><rect x="1470" y="414" width="12" height="16" fill="#6f9f99" opacity="0.38"/><rect x="1512" y="414" width="12" height="16" fill="#6f9f99" opacity="0.38"/><rect x="1302" y="460" width="12" height="16" fill="#6f9f99" opacity="0.38"/><rect x="1344" y="460" width="12" height="16" fill="#6f9f99" opacity="0.38"/><rect x="1386" y="460" width="12" height="16" fill="#6f9f99" opacity="0.38"/><rect x="1428" y="460" width="12" height="16" fill="#6f9f99" opacity="0.38"/><rect x="1470" y="460" width="12" height="16" fill="#6f9f99" opacity="0.38"/><rect x="1512" y="460" width="12" height="16" fill="#6f9f99" opacity="0.38"/><rect x="1302" y="506" width="12" height="16" fill="#6f9f99" opacity="0.38"/><rect x="1344" y="506" width="12" height="16" fill="#6f9f99" opacity="0.38"/><rect x="1386" y="506" width="12" height="16" fill="#6f9f99" opacity="0.38"/><rect x="1428" y="506" width="12" height="16" fill="#6f9f99" opacity="0.38"/><rect x="1470" y="506" width="12" height="16" fill="#6f9f99" opacity="0.38"/><rect x="1512" y="506" width="12" height="16" fill="#6f9f99" opacity="0.38"/><rect x="1302" y="552" width="12" height="16" fill="#6f9f99" opacity="0.38"/><rect x="1344" y="552" width="12" height="16" fill="#6f9f99" opacity="0.38"/><rect x="1386" y="552" width="12" height="16" fill="#6f9f99" opacity="0.38"/><rect x="1428" y="552" width="12" height="16" fill="#6f9f99" opacity="0.38"/><rect x="1470" y="552" width="12" height="16" fill="#6f9f99" opacity="0.38"/><rect x="1512" y="552" width="12" height="16" fill="#6f9f99" opacity="0.38"/><rect x="1302" y="598" width="12" height="16" fill="#6f9f99" opacity="0.38"/><rect x="1344" y="598" width="12" height="16" fill="#6f9f99" opacity="0.38"/><rect x="1386" y="598" width="12" height="16" fill="#6f9f99" opacity="0.38"/><rect x="1428" y="598" width="12" height="16" fill="#6f9f99" opacity="0.38"/><rect x="1470" y="598" width="12" height="16" fill="#6f9f99" opacity="0.38"/><rect x="1512" y="598" width="12" height="16" fill="#6f9f99" opacity="0.38"/><rect x="1610" y="176" width="250" height="444" fill="#14292e"/><rect x="1618" y="184" width="234" height="8" fill="#365057"/><rect x="1632" y="210" width="12" height="16" fill="#6f9f99" opacity="0.38"/><rect x="1674" y="210" width="12" height="16" fill="#6f9f99" opacity="0.38"/><rect x="1716" y="210" width="12" height="16" fill="#6f9f99" opacity="0.38"/><rect x="1758" y="210" width="12" height="16" fill="#6f9f99" opacity="0.38"/><rect x="1800" y="210" width="12" height="16" fill="#6f9f99" opacity="0.38"/><rect x="1632" y="256" width="12" height="16" fill="#6f9f99" opacity="0.38"/><rect x="1674" y="256" width="12" height="16" fill="#6f9f99" opacity="0.38"/><rect x="1716" y="256" width="12" height="16" fill="#6f9f99" opacity="0.38"/><rect x="1758" y="256" width="12" height="16" fill="#6f9f99" opacity="0.38"/><rect x="1800" y="256" width="12" height="16" fill="#6f9f99" opacity="0.38"/><rect x="1632" y="302" width="12" height="16" fill="#6f9f99" opacity="0.38"/><rect x="1674" y="302" width="12" height="16" fill="#6f9f99" opacity="0.38"/><rect x="1716" y="302" width="12" height="16" fill="#6f9f99" opacity="0.38"/><rect x="1758" y="302" width="12" height="16" fill="#6f9f99" opacity="0.38"/><rect x="1800" y="302" width="12" height="16" fill="#6f9f99" opacity="0.38"/><rect x="1632" y="348" width="12" height="16" fill="#6f9f99" opacity="0.38"/><rect x="1674" y="348" width="12" height="16" fill="#6f9f99" opacity="0.38"/><rect x="1716" y="348" width="12" height="16" fill="#6f9f99" opacity="0.38"/><rect x="1758" y="348" width="12" height="16" fill="#6f9f99" opacity="0.38"/><rect x="1800" y="348" width="12" height="16" fill="#6f9f99" opacity="0.38"/><rect x="1632" y="394" width="12" height="16" fill="#6f9f99" opacity="0.38"/><rect x="1674" y="394" width="12" height="16" fill="#6f9f99" opacity="0.38"/><rect x="1716" y="394" width="12" height="16" fill="#6f9f99" opacity="0.38"/><rect x="1758" y="394" width="12" height="16" fill="#6f9f99" opacity="0.38"/><rect x="1800" y="394" width="12" height="16" fill="#6f9f99" opacity="0.38"/><rect x="1632" y="440" width="12" height="16" fill="#6f9f99" opacity="0.38"/><rect x="1674" y="440" width="12" height="16" fill="#6f9f99" opacity="0.38"/><rect x="1716" y="440" width="12" height="16" fill="#6f9f99" opacity="0.38"/><rect x="1758" y="440" width="12" height="16" fill="#6f9f99" opacity="0.38"/><rect x="1800" y="440" width="12" height="16" fill="#6f9f99" opacity="0.38"/><rect x="1632" y="486" width="12" height="16" fill="#6f9f99" opacity="0.38"/><rect x="1674" y="486" width="12" height="16" fill="#6f9f99" opacity="0.38"/><rect x="1716" y="486" width="12" height="16" fill="#6f9f99" opacity="0.38"/><rect x="1758" y="486" width="12" height="16" fill="#6f9f99" opacity="0.38"/><rect x="1800" y="486" width="12" height="16" fill="#6f9f99" opacity="0.38"/><rect x="1632" y="532" width="12" height="16" fill="#6f9f99" opacity="0.38"/><rect x="1674" y="532" width="12" height="16" fill="#6f9f99" opacity="0.38"/><rect x="1716" y="532" width="12" height="16" fill="#6f9f99" opacity="0.38"/><rect x="1758" y="532" width="12" height="16" fill="#6f9f99" opacity="0.38"/><rect x="1800" y="532" width="12" height="16" fill="#6f9f99" opacity="0.38"/><rect x="1632" y="578" width="12" height="16" fill="#6f9f99" opacity="0.38"/><rect x="1674" y="578" width="12" height="16" fill="#6f9f99" opacity="0.38"/><rect x="1716" y="578" width="12" height="16" fill="#6f9f99" opacity="0.38"/><rect x="1758" y="578" width="12" height="16" fill="#6f9f99" opacity="0.38"/><rect x="1800" y="578" width="12" height="16" fill="#6f9f99" opacity="0.38"/><g fill="none" stroke-linecap="square" stroke-linejoin="miter"><path d="M0 274 H420 V226 H760 V302 H1120 V238 H1510 V286 H1920" stroke="#233b40" stroke-width="24"/><path d="M0 274 H420 V226 H760 V302 H1120 V238 H1510 V286 H1920" stroke="#597077" stroke-width="4"/><path d="M86 0 V188 H250 V334 H512" stroke="#20363b" stroke-width="18"/><path d="M1430 0 V206 H1724 V372 H1920" stroke="#20363b" stroke-width="18"/><path d="M0 78 C420 130 760 28 1120 90 S1640 144 1920 64" stroke="#182a2f" stroke-width="5"/></g></g></svg>
